<?xml version="1.0" standalone="no"?>
<!DOCTYPE svg PUBLIC "-//W3C//DTD SVG 20010904//EN"
 "http://www.w3.org/TR/2001/REC-SVG-20010904/DTD/svg10.dtd">
<svg version="1.0" xmlns="http://www.w3.org/2000/svg"
 width="471.000000pt" height="471.000000pt" viewBox="0 0 471.000000 471.000000"
 preserveAspectRatio="xMidYMid meet">
<metadata>
Created by potrace 1.14, written by Peter Selinger 2001-2017
</metadata>
<g transform="translate(0.000000,471.000000) scale(0.100000,-0.100000)"
fill="#000000" stroke="none">
<path d="M2285 4698 c-16 -6 -43 -20 -60 -32 -56 -39 -441 -433 -458 -469 -9
-19 -17 -56 -17 -82 0 -103 7 -114 239 -348 119 -120 228 -226 244 -235 l27
-16 0 -288 c0 -212 -3 -288 -12 -288 -21 0 -457 -442 -478 -485 -26 -53 -26
-136 -1 -191 19 -41 407 -441 464 -479 l27 -17 0 -289 c0 -218 -3 -289 -12
-289 -22 0 -459 -443 -479 -485 -25 -54 -25 -137 2 -191 25 -53 434 -464 487
-490 52 -26 135 -24 192 4 31 15 116 92 267 244 193 195 223 229 233 268 14
53 8 126 -16 172 -18 36 -386 413 -448 459 l-38 29 -2 285 c-1 255 1 286 15
290 9 3 116 105 237 226 249 248 268 275 259 368 -2 32 -12 72 -21 90 -17 32
-436 456 -470 476 -17 10 -18 33 -18 295 l0 285 24 15 c49 31 446 437 466 477
25 48 24 149 -2 199 -20 38 -424 445 -472 475 -41 25 -134 34 -179 17z"/>
<path d="M1385 3811 c-44 -20 -66 -41 -303 -285 -187 -191 -208 -225 -199
-316 2 -31 12 -71 21 -88 17 -33 416 -438 460 -467 l26 -17 0 -289 0 -288 -27
-15 c-50 -26 -450 -437 -468 -481 -20 -48 -16 -143 9 -191 20 -39 425 -445
473 -475 49 -31 150 -33 207 -4 23 11 133 113 261 240 235 236 245 250 245
344 0 88 -26 123 -257 347 -118 115 -226 215 -239 222 l-24 13 0 288 0 289 28
17 c56 37 451 442 466 480 21 50 20 131 -3 181 -19 42 -401 434 -470 483 -46
33 -149 39 -206 12z"/>
<path d="M3135 3809 c-60 -31 -451 -423 -482 -483 -34 -66 -35 -139 -2 -200
14 -27 141 -165 319 -346 311 -316 333 -345 333 -430 1 -98 -4 -104 -338 -440
-172 -173 -320 -329 -328 -346 -23 -45 -26 -102 -10 -158 13 -43 39 -73 237
-272 230 -231 254 -249 342 -259 105 -13 79 -36 808 694 657 658 665 667 681
723 17 60 15 106 -9 161 -8 19 -280 299 -669 687 -578 578 -661 657 -704 673
-65 23 -129 22 -178 -4z"/>
<path d="M575 2949 c-22 -4 -52 -12 -67 -18 -38 -14 -460 -439 -483 -487 -25
-50 -26 -155 -3 -200 25 -47 442 -459 485 -479 52 -25 115 -30 170 -14 43 12
73 38 270 235 240 238 264 271 265 362 0 27 -8 66 -17 88 -19 47 -421 456
-475 484 -54 27 -101 37 -145 29z"/>
</g>
</svg>
